<svg width="181" height="45" viewBox="0 0 181 45" fill="none" xmlns="http://www.w3.org/2000/svg">
<g clip-path="url(#clip0)">
<path d="M170.425 44.5622C164.441 44.5622 160.318 41.1571 160.318 30.6078V28.3377H166.967V30.6078C166.967 36.2162 168.431 37.752 170.425 37.752C172.42 37.752 173.817 36.2162 173.817 33.6124C173.817 30.3406 173.351 28.5379 168.696 25.1328C163.244 21.1935 160.716 16.9871 160.716 11.5789C160.716 4.70182 164.308 0.562222 170.425 0.562222C174.681 0.562222 180.333 1.89758 180.333 13.1146V15.7185H173.683V13.1146C173.683 8.70789 172.287 7.239 170.425 7.239C168.431 7.239 167.367 8.70789 167.367 11.3118C167.367 13.9826 167.965 16.1859 172.62 19.7913C178.404 24.2649 180.466 27.8036 180.466 33.6124C180.466 39.4211 177.805 44.5622 170.425 44.5622ZM147.618 44.5622C141.633 44.5622 137.511 41.6912 137.511 30.6078V28.3377H144.16V30.6078C144.16 36.2162 145.623 37.752 147.618 37.752C149.612 37.752 151.009 36.2162 151.009 33.6124C151.009 30.3406 150.543 28.5379 145.889 25.1328C140.436 21.1935 137.91 16.9871 137.91 11.5789C137.91 4.70182 141.5 0.562222 147.618 0.562222C151.873 0.562222 157.525 1.89758 157.525 13.1146V15.7185H150.876V13.1146C150.876 8.70789 149.479 7.239 147.618 7.239C145.623 7.239 144.559 8.70789 144.559 11.3118C144.559 13.9826 145.157 16.1859 149.812 19.7913C155.597 24.2649 157.658 27.8036 157.658 33.6124C157.658 39.4211 154.999 44.5622 147.618 44.5622ZM78.7961 44.5622C72.8116 44.5622 68.689 41.1571 68.689 30.6078V28.3377H75.3384V30.6078C75.3384 36.2162 76.8013 37.752 78.7961 37.752C80.791 37.752 82.1872 36.2162 82.1872 33.6124C82.1872 30.3406 81.7218 28.5379 77.0672 25.1328C71.6148 21.1935 69.088 16.9871 69.088 11.5789C69.088 4.70182 72.6787 0.562222 78.7961 0.562222C83.0517 0.562222 88.7037 1.89758 88.7037 13.1146V15.7185H82.0543V13.1146C82.0543 8.70789 80.6579 7.239 78.7961 7.239C76.8013 7.239 75.7374 8.70789 75.7374 11.3118C75.7374 13.9826 76.3358 16.1859 80.9904 19.7913C86.7754 24.2649 88.8367 27.8036 88.8367 33.6124C88.8367 39.4211 86.1769 44.5622 78.7961 44.5622ZM55.9886 44.5622C50.004 44.5622 45.8814 41.6912 45.8814 30.6078V28.3377H52.5308V30.6078C52.5308 36.2162 53.9937 37.752 55.9886 37.752C57.9834 37.752 59.3798 36.2162 59.3798 33.6124C59.3798 30.3406 58.9143 28.5379 54.2598 25.1328C48.8072 21.1935 46.2804 16.9871 46.2804 11.5789C46.2804 4.70182 49.8711 0.562222 55.9886 0.562222C60.2441 0.562222 65.8961 1.89758 65.8961 13.1146V15.7185H59.2467V13.1146C59.2467 8.70789 57.8505 7.239 55.9886 7.239C53.9937 7.239 52.9298 8.70789 52.9298 11.3118C52.9298 13.9826 53.5282 16.1859 58.1828 19.7913C63.9679 24.2649 66.0292 27.8036 66.0292 33.6124C66.0292 39.4211 63.3693 44.5622 55.9886 44.5622ZM99.0103 28.3377H100.34C103.266 28.3377 104.729 26.8687 104.729 20.0585V16.1859C104.729 9.37558 103.266 7.90669 100.34 7.90669H99.0103V28.3377ZM99.0103 43.8945H92.3609V1.2299H100.34C108.985 1.2299 111.378 6.17071 111.378 15.5182V20.7262C111.378 30.0736 108.985 35.0144 100.34 35.0144H99.0103V43.8945ZM8.44513 21.6608H7.11524V7.90669H8.44513C11.4374 7.90669 12.8338 8.9082 12.8338 13.5819V15.9856C12.8338 20.6594 11.4374 21.6608 8.44513 21.6608ZM20.7466 43.8945L15.6265 26.1342C18.0869 24.0645 19.4831 20.6594 19.4831 16.453V13.1146C19.4831 5.30273 16.0255 1.2299 8.44513 1.2299H0.46582V43.8945H7.11524V28.3377H7.97967C8.49025 28.341 9.00068 28.3187 9.50904 28.2709L13.4987 43.8945H20.7466ZM120.355 28.3377L123.746 7.90669H124.278L127.669 28.3377H120.355ZM130.196 43.8945H136.846L129.465 1.2299H118.56L111.112 43.8945H117.762L119.291 35.0144H128.733L130.196 43.8945ZM32.782 44.5622C24.6032 44.5622 23.0738 38.3529 23.0738 30.808V1.2299H29.9893V31.4089C29.9893 36.6835 30.9202 37.8854 32.782 37.8854C34.6439 37.8854 35.5748 36.6835 35.5748 31.4089V1.2299H42.4901V30.808C42.4901 38.3529 40.9608 44.5622 32.782 44.5622Z" fill="white"/>
</g>
<defs>
<clipPath id="clip0">
<rect width="180" height="44" fill="white" transform="translate(0.46582 0.562222)"/>
</clipPath>
</defs>
</svg>
